<?xml version="1.0" standalone="no"?>
<!DOCTYPE svg PUBLIC "-//W3C//DTD SVG 20010904//EN"
 "http://www.w3.org/TR/2001/REC-SVG-20010904/DTD/svg10.dtd">
<svg version="1.0" xmlns="http://www.w3.org/2000/svg"
 width="388.000000pt" height="130.000000pt" viewBox="0 0 388.000000 130.000000"
 preserveAspectRatio="xMidYMid meet">

<g transform="translate(0.000000,130.000000) scale(0.100000,-0.100000)"
fill="#000000" stroke="none">
<path d="M0 650 l0 -650 1940 0 1940 0 0 650 0 650 -1940 0 -1940 0 0 -650z
m1843 505 c171 -44 309 -174 367 -345 31 -89 38 -233 16 -319 -42 -163 -140
-287 -280 -357 -69 -33 -88 -38 -168 -42 -65 -3 -107 0 -154 13 -66 18 -163
74 -199 115 -13 15 -2 10 32 -14 167 -119 395 -107 552 30 179 156 215 451 80
653 -96 144 -267 221 -425 192 -132 -24 -163 -47 -474 -357 -157 -155 -298
-287 -313 -293 -37 -14 -112 -14 -140 0 -33 17 -77 61 -95 94 -20 39 -20 131
1 171 23 45 81 92 123 100 38 7 108 -9 120 -27 4 -8 0 -8 -14 0 -62 33 -157
-1 -193 -69 -66 -123 54 -274 174 -219 14 6 84 75 157 153 305 324 424 440
486 473 115 61 234 78 347 48z m50 -133 c169 -79 272 -280 240 -469 -24 -137
-114 -262 -230 -320 -52 -25 -68 -28 -158 -28 -89 0 -106 3 -155 28 -30 15
-68 39 -85 53 -24 20 -15 17 40 -13 68 -37 73 -38 170 -38 84 0 107 4 147 24
162 80 248 267 204 441 -30 115 -92 197 -189 247 -45 24 -63 28 -142 28 -144
0 -145 -1 -469 -331 -154 -157 -299 -297 -324 -311 -33 -20 -62 -27 -118 -31
-68 -4 -80 -2 -139 27 -110 54 -169 153 -169 281 0 99 28 164 99 228 58 54
106 72 187 72 55 0 142 -34 168 -65 7 -8 -8 -3 -34 11 -104 58 -227 37 -306
-54 -41 -46 -70 -120 -70 -177 0 -92 66 -201 144 -236 55 -25 138 -24 191 1
28 14 116 98 271 261 272 287 327 339 390 369 68 33 100 39 189 36 66 -2 93
-8 148 -34z m-1022 4 c64 -15 134 -52 164 -87 l20 -24 -20 17 c-11 9 -47 29
-80 44 -79 37 -182 38 -270 4 -75 -29 -155 -107 -193 -187 -24 -52 -27 -69
-27 -168 0 -98 3 -116 26 -165 39 -81 90 -135 166 -172 57 -28 77 -33 142 -33
66 0 85 4 141 32 57 28 100 69 340 314 311 319 330 333 450 332 38 0 81 -7
103 -17 54 -24 124 -92 155 -151 23 -43 27 -62 27 -140 0 -102 -18 -150 -84
-218 -58 -62 -104 -81 -191 -82 -64 0 -82 4 -122 28 -26 15 -50 32 -53 37 -4
6 8 2 27 -9 59 -37 126 -46 192 -27 105 31 175 118 183 231 7 76 -9 133 -50
187 -69 90 -192 120 -283 69 -23 -13 -161 -149 -312 -306 -257 -268 -276 -286
-349 -322 -72 -36 -83 -38 -168 -38 -85 0 -96 2 -167 38 -265 130 -325 499
-117 707 101 101 221 137 350 106z m1570 -266 c10 -6 19 -15 19 -21 0 -6 -8
-6 -21 1 -15 9 -24 8 -35 -1 -21 -18 -17 -28 21 -50 39 -23 51 -49 35 -79 -13
-25 -55 -36 -75 -20 -24 20 -17 31 11 18 23 -11 28 -10 40 7 18 25 16 29 -26
57 -42 29 -48 50 -21 77 24 24 26 24 52 11z m97 -85 c-2 -48 -7 -85 -13 -85
-6 0 -11 37 -13 85 -2 72 0 85 13 85 13 0 15 -13 13 -85z m102 23 l29 -63 1
63 c0 34 4 62 10 62 6 0 10 -37 10 -90 0 -49 -4 -90 -9 -90 -4 0 -22 30 -39
68 l-30 67 -1 -67 c-1 -38 -5 -68 -11 -68 -6 0 -10 37 -10 90 0 57 4 90 11 90
5 0 23 -28 39 -62z m150 -8 c0 -68 1 -70 25 -70 19 0 25 -5 25 -21 0 -18 -5
-20 -47 -17 l-48 3 -3 88 -3 87 26 0 c24 0 25 -2 25 -70z m130 -20 c0 -83 -1
-90 -20 -90 -19 0 -20 7 -20 90 0 83 1 90 20 90 19 0 20 -7 20 -90z m106 65
c3 -14 10 -25 14 -25 4 0 11 11 14 25 5 18 13 25 31 25 25 0 25 -1 25 -90 0
-83 -1 -90 -20 -90 -18 0 -20 7 -21 58 0 31 -3 50 -6 42 -3 -8 -10 -26 -16
-40 l-9 -25 -13 35 -13 35 -1 -52 c-1 -46 -4 -53 -21 -53 -19 0 -20 7 -20 90
0 89 0 90 25 90 18 0 26 -7 31 -25z m174 -65 c0 -83 -1 -90 -20 -90 -19 0 -20
7 -20 90 0 83 1 90 20 90 19 0 20 -7 20 -90z m160 74 c0 -9 -9 -18 -20 -21
-18 -5 -20 -14 -20 -74 0 -62 -2 -69 -20 -69 -18 0 -20 7 -20 69 0 60 -2 69
-20 74 -11 3 -20 12 -20 21 0 13 12 16 60 16 48 0 60 -3 60 -16z m140 -4 c0
-16 -7 -20 -30 -20 -16 0 -30 -4 -30 -10 0 -5 14 -10 30 -10 23 0 30 -4 30
-20 0 -16 -7 -20 -31 -20 -24 0 -30 -4 -27 -17 2 -11 14 -19 31 -21 19 -2 27
-9 27 -23 0 -16 -7 -19 -50 -19 l-50 0 0 90 0 90 50 0 c43 0 50 -3 50 -20z
m-835 -230 c3 -5 1 -10 -4 -10 -6 0 -11 -9 -11 -20 0 -11 5 -20 12 -20 9 0 9
-3 1 -11 -17 -17 -33 -2 -33 30 0 38 20 55 35 31z m145 -6 c0 9 5 14 10 11 6
-3 10 -19 10 -35 0 -16 -4 -32 -10 -35 -5 -3 -10 2 -10 11 0 16 -1 16 -15 -2
-13 -18 -14 -16 -14 26 0 42 1 44 14 26 14 -18 15 -18 15 -2z m150 -24 c0 -16
-4 -32 -10 -35 -6 -4 -10 10 -10 35 0 25 4 39 10 35 6 -3 10 -19 10 -35z m136
-20 c8 0 14 -4 14 -10 0 -5 -9 -10 -20 -10 -17 0 -20 6 -18 43 1 36 2 38 5 10
3 -20 10 -33 19 -33z m154 50 c0 -5 -6 -10 -12 -10 -9 0 -8 -4 2 -10 13 -9 13
-11 0 -20 -10 -6 -11 -10 -2 -10 6 0 12 -4 12 -10 0 -5 -9 -10 -20 -10 -17 0
-20 7 -20 40 0 33 3 40 20 40 11 0 20 -4 20 -10z"/>
</g>
</svg>
